<?xml version="1.0" standalone="no"?>

<svg version="1.0" xmlns="http://www.w3.org/2000/svg"
 width="512.000000pt" height="512.000000pt" viewBox="0 0 512.000000 512.000000"
 preserveAspectRatio="xMidYMid meet">
<metadata>
</metadata>
<g transform="translate(0.000000,512.000000) scale(0.100000,-0.100000)"
fill="#000000" stroke="none">
<path d="M0 2560 l0 -1670 290 0 290 0 0 1670 0 1670 -290 0 -290 0 0 -1670z"/>
<path d="M930 2560 l0 -1670 150 0 150 0 0 1670 0 1670 -150 0 -150 0 0 -1670z"/>
<path d="M1600 2560 l0 -1670 435 0 435 0 0 1670 0 1670 -435 0 -435 0 0
-1670z"/>
<path d="M2730 2560 l0 -1670 150 0 150 0 0 1670 0 1670 -150 0 -150 0 0
-1670z"/>
<path d="M3240 2560 l0 -1670 150 0 150 0 0 1670 0 1670 -150 0 -150 0 0
-1670z"/>
<path d="M3760 2560 l0 -1670 295 0 295 0 0 1670 0 1670 -295 0 -295 0 0
-1670z"/>
<path d="M4470 2560 l0 -1670 145 0 145 0 0 1670 0 1670 -145 0 -145 0 0
-1670z"/>
<path d="M4970 2560 l0 -1670 75 0 75 0 0 1670 0 1670 -75 0 -75 0 0 -1670z"/>
</g>
</svg>
