<?xml version="1.0" encoding="utf-8"?>
<!-- Generator: Adobe Illustrator 15.0.2, SVG Export Plug-In . SVG Version: 6.00 Build 0)  -->
<!DOCTYPE svg PUBLIC "-//W3C//DTD SVG 1.1//EN" "http://www.w3.org/Graphics/SVG/1.1/DTD/svg11.dtd">
<svg version="1.1" id="Layer_1" xmlns="http://www.w3.org/2000/svg" xmlns:xlink="http://www.w3.org/1999/xlink" x="0px" y="0px"
	 width="512px" height="480px" viewBox="0 0 512 480" enable-background="new 0 0 512 480" xml:space="preserve">
<g>
	<path fill="#000000" style="fill:#000000;" d="M511.453,30.336C510.047,13.859,496.734,0,480,0H32C15.266,0,1.953,13.859,0.547,30.336H0v2.656V96v226.656V352v96
		c0,17.656,14.336,32,32,32h448c17.656,0,32-14.344,32-32V96V32.992v-2.656H511.453z M192,192V96h128v96H192z M320,224v98.656H192
		V224H320z M160,96v96H32V96H160z M32,224h128v98.656H32V224z M32,448v-96h128v96H32z M192,448v-96h128v96H192z M480,448H352v-96
		h128V448z M480,322.656H352V224h128V322.656z M480,192H352V96h128V192z"/>
</g>
</svg>
