<?xml version="1.0" encoding="utf-8"?>
<!-- Generator: Adobe Illustrator 15.0.2, SVG Export Plug-In . SVG Version: 6.00 Build 0)  -->
<!DOCTYPE svg PUBLIC "-//W3C//DTD SVG 1.1//EN" "http://www.w3.org/Graphics/SVG/1.1/DTD/svg11.dtd">
<svg version="1.1" id="Layer_1" xmlns="http://www.w3.org/2000/svg" xmlns:xlink="http://www.w3.org/1999/xlink" x="0px" y="0px"
	 width="512px" height="292.57px" viewBox="0 0 512 292.57" enable-background="new 0 0 512 292.57" xml:space="preserve">
<path fill="#000000" style="fill:#000000;" d="M0,0h512v292.57H0V0z M36.571,36.571v219.435H274.3V36.571H36.571z M475.435,256.006V36.571H292.57v219.435H475.435z
	 M329.158,109.718h109.718l-54.859,73.136L329.158,109.718z M156.771,201.146h-25.603v-12.722h-0.344
	c-5.78,9.62-14.329,14.437-25.653,14.437c-8.357,0-14.933-2.346-19.72-7.016c-4.794-4.658-7.19-10.884-7.19-18.677
	c0-16.444,9.896-25.936,29.68-28.479l23.392-3.067c0-8.493-5.098-12.745-15.282-12.745c-10.258,0-20.009,2.842-29.251,8.532v-20.053
	l15.266-5.064l17.64-2.188c24.711,0,37.066,12.091,37.066,36.267V201.146z M131.333,166.567v-5.583l-15.948,1.951
	c-8.819,1.06-13.229,4.805-13.229,11.222c0,2.898,1.071,5.278,3.215,7.14c2.143,1.85,5.047,2.785,8.706,2.785
	c5.104,0,9.255-1.657,12.452-4.962C129.731,175.815,131.333,171.62,131.333,166.567z"/>
</svg>
