<?xml version="1.0" encoding="utf-8"?>
<!-- Generator: Adobe Illustrator 15.0.2, SVG Export Plug-In . SVG Version: 6.00 Build 0)  -->
<!DOCTYPE svg PUBLIC "-//W3C//DTD SVG 1.1//EN" "http://www.w3.org/Graphics/SVG/1.1/DTD/svg11.dtd">
<svg version="1.1" id="Layer_1" xmlns="http://www.w3.org/2000/svg" xmlns:xlink="http://www.w3.org/1999/xlink" x="0px" y="0px"
	 width="512px" height="310.864px" viewBox="0 0 512 310.864" enable-background="new 0 0 512 310.864" xml:space="preserve">
<path fill="#000000" style="fill:#000000;" d="M0,0h512v310.864H0V0z M36.571,36.571V274.3h438.864V36.571H36.571z M156.771,219.44h-25.603v-12.722h-0.344
	c-5.78,9.609-14.329,14.414-25.653,14.414c-8.357,0-14.933-2.324-19.72-6.993c-4.794-4.669-7.19-10.895-7.19-18.677
	c0-16.444,9.896-25.941,29.68-28.49l23.392-3.067c0-8.493-5.098-12.739-15.282-12.739c-10.258,0-20.009,2.837-29.251,8.532v-20.053
	l15.266-5.07l17.64-2.183c24.711,0,37.066,12.085,37.066,36.272V219.44z M131.333,184.838v-5.571l-15.948,1.951
	c-8.819,1.071-13.229,4.815-13.229,11.222c0,2.91,1.071,5.278,3.215,7.14c2.143,1.861,5.047,2.786,8.706,2.786
	c5.104,0,9.255-1.646,12.452-4.963C129.731,194.098,131.333,189.913,131.333,184.838z M203.199,208.816h-0.344v10.624h-25.603
	V93.138h25.603v54.481h0.344c6.576-10.15,15.932-15.227,28.056-15.227c11.126,0,19.704,3.745,25.721,11.239
	c6.022,7.495,9.022,17.735,9.022,30.74c0,14.098-3.507,25.41-10.528,33.948c-7.026,8.549-16.41,12.812-28.162,12.812
	C216.678,221.133,208.642,217.027,203.199,208.816z M202.455,173.616v8.481c0,5.357,1.596,9.778,4.799,13.297
	c3.198,3.508,7.309,5.268,12.322,5.268c6.062,0,10.766-2.256,14.104-6.756c3.344-4.512,5.014-10.896,5.014-19.174
	c0-6.857-1.528-12.215-4.585-16.071c-3.057-3.869-7.433-5.786-13.123-5.786c-5.334,0-9.756,1.917-13.263,5.74
	C204.209,162.45,202.455,167.446,202.455,173.616z M346.211,215.786c-5.808,3.564-14.211,5.347-25.196,5.347
	c-12.835,0-23.222-3.925-31.151-11.809c-7.939-7.873-11.909-18.035-11.909-30.509c0-14.369,4.24-25.692,12.756-33.982
	c8.504-8.295,19.884-12.44,34.14-12.44c9.835,0,16.963,1.382,21.361,4.156v23.149c-5.232-4.545-11.086-6.823-17.538-6.823
	c-7.207,0-12.902,2.143-17.109,6.429c-4.207,4.309-6.315,10.218-6.315,17.774c0,7.354,2.019,13.117,6.033,17.302
	c4.027,4.185,9.554,6.282,16.591,6.282c6.249,0,12.373-2.278,18.339-6.823V215.786z M361.145,256.006V54.858h22.872v201.147H361.145
	z"/>
</svg>
